<svg xmlns="http://www.w3.org/2000/svg" width="460" height="175" viewBox="0 0 460 175" role="img"><title>AI + HARDWARE — A VOICE. A TOUCH. A CONVERSATION.</title><defs><pattern id="dots" width="16" height="16" patternUnits="userSpaceOnUse"><circle cx="1" cy="1" r=".7" fill="#c4b5fd" opacity=".12"/></pattern><radialGradient id="glow"><stop stop-color="#c4b5fd" stop-opacity=".12"/><stop offset="1" stop-color="#c4b5fd" stop-opacity="0"/></radialGradient></defs><rect width="460" height="175" rx="10" fill="#0e1522"/><rect width="460" height="175" rx="10" fill="url(#dots)"/><ellipse cx="300" cy="85" rx="170" ry="100" fill="url(#glow)"/><g font-family="ui-monospace,SFMono-Regular,Consolas,monospace"><text x="22" y="30" fill="#c4b5fd" font-size="10" letter-spacing="1.8">02 / AI + HARDWARE</text><text x="22" y="149" fill="#9eb0c9" font-size="11">A VOICE. A TOUCH. A CONVERSATION.</text></g>
<g fill="none" stroke="#a78bfa"><circle cx="326" cy="86" r="54" stroke-opacity=".25"/><circle cx="326" cy="86" r="40" stroke-opacity=".45"/><rect x="316" y="58" width="20" height="36" rx="10" fill="#211d3c" stroke-width="2"/><path d="M306 82v5a20 20 0 0 0 40 0v-5M326 108v13M315 121h22" stroke-width="2" stroke-linecap="round"/><path d="M226 79v14M236 67v38M246 73v26M406 79v14M416 67v38M426 73v26" stroke-width="3" stroke-linecap="round" stroke-opacity=".55"/></g></svg>